<svg xmlns="http://www.w3.org/2000/svg" viewBox="0 0 122.88 92.12">
  <path fill="#4285F4" d="M8.36,92.12h19.54V44.67L0,23.76v60.08C0,88.42,3.78,92.12,8.36,92.12L8.36,92.12z"/>
  <path fill="#34A853" d="M94.97,92.12h19.54c4.67,0,8.36-3.78,8.36-8.36v-60L94.97,44.67V92.12L94.97,92.12z"/>
  <path fill="#FBBC04" d="M94.97,8.4v36.27l27.91-20.91V12.58c0-10.37-11.82-16.25-20.11-10.05L94.97,8.4L94.97,8.4z"/>
  <path fill="#EA4335" d="M27.9,44.67L27.9,8.4L61.44,33.57L94.97,8.4L94.97,44.67L61.44,69.76L27.9,44.67z"/>
  <path fill="#C5221F" d="M0,12.58v11.18l27.91,20.91V8.4l-7.8-5.87C11.82-3.66,0,2.29,0,12.58L0,12.58z"/>
</svg>
